<?xml version="1.0" encoding="UTF-8" standalone="no"?>
<svg
   xmlns:dc="http://purl.org/dc/elements/1.1/"
   xmlns:cc="http://creativecommons.org/ns#"
   xmlns:rdf="http://www.w3.org/1999/02/22-rdf-syntax-ns#"
   xmlns:svg="http://www.w3.org/2000/svg"
   xmlns="http://www.w3.org/2000/svg"
   id="svg14"
   version="1.1"
   viewBox="0 0 100 100"
   height="100"
   width="100">
  <metadata
     id="metadata20">
    <rdf:RDF>
      <cc:Work
         rdf:about="">
        <dc:format>image/svg+xml</dc:format>
        <dc:type
           rdf:resource="http://purl.org/dc/dcmitype/StillImage" />
        <dc:title></dc:title>
      </cc:Work>
    </rdf:RDF>
  </metadata>
  <defs
     id="defs18" />
  <g
     style="display:none"
     id="layer1">
    <rect
       y="0"
       x="0"
       height="100"
       width="100"
       id="rect856"
       style="opacity:1;fill:#ffffff;fill-opacity:1;stroke:none;stroke-width:5;stroke-linecap:butt;stroke-miterlimit:4;stroke-dasharray:none;stroke-opacity:1;paint-order:fill markers stroke" />
  </g>
  <g
     id="layer2">
    <path
       id="circle2"
       d="M 50 8 A 42 42 0 0 0 8 50 A 42 42 0 0 0 50 92 A 42 42 0 0 0 92 50 A 42 42 0 0 0 50 8 z M 29.660156 25.46875 A 0.94336608 0.94336608 0 0 1 29.755859 25.472656 L 74.865234 29.396484 A 0.94336608 0.94336608 0 0 1 75.509766 29.738281 A 0.94336608 0.94336608 0 0 1 75.726562 30.423828 L 72.847656 63.263672 L 60.630859 62.197266 A 0.94336608 0.94336608 0 0 0 59.945312 62.414062 A 0.94336608 0.94336608 0 0 0 59.603516 63.054688 L 58.537109 75.320312 L 25.642578 72.441406 A 0.94336608 0.94336608 0 0 1 25 72.113281 A 0.94336608 0.94336608 0 0 1 24.785156 71.423828 L 28.736328 26.330078 A 0.94336608 0.94336608 0 0 1 29.660156 25.46875 z M 35.425781 36.367188 L 35.265625 38.246094 L 49.404297 39.490234 L 49.576172 37.603516 L 35.425781 36.367188 z M 52.349609 37.849609 L 52.179688 39.736328 L 58.783203 40.3125 L 58.953125 38.423828 L 52.349609 37.849609 z M 60.857422 38.472656 L 60.697266 40.357422 L 67.300781 40.933594 L 67.460938 39.046875 L 60.857422 38.472656 z M 34.792969 43.849609 L 34.621094 45.736328 L 41.224609 46.3125 L 41.396484 44.423828 L 34.792969 43.849609 z M 43.224609 44.621094 L 43.064453 46.509766 L 58.105469 47.828125 L 58.265625 45.943359 L 43.224609 44.621094 z M 60.197266 46.019531 L 60.037109 47.90625 L 66.640625 48.480469 L 66.800781 46.595703 L 60.197266 46.019531 z M 34.123047 51.396484 L 33.962891 53.28125 L 40.566406 53.859375 L 40.726562 51.970703 L 34.123047 51.396484 z M 42.576172 52.085938 L 42.40625 53.970703 L 51.839844 54.800781 L 52.007812 52.90625 L 42.576172 52.085938 z M 53.884766 53.076172 L 53.724609 54.960938 L 65.990234 56.027344 L 66.150391 54.142578 L 53.884766 53.076172 z M 61.404297 64.207031 L 72.130859 65.140625 L 60.462891 74.933594 L 61.404297 64.207031 z "
       style="fill:#000000;stroke:none;stroke-width:0.875;fill-opacity:1" />
  </g>
</svg>
