<svg xmlns="http://www.w3.org/2000/svg" xmlns:xlink="http://www.w3.org/1999/xlink" width="100" height="100" viewBox="0 0 100 100"><circle stroke="none" fill="#7957d5" r="48%" cx="50%" cy="50%"></circle><g transform="translate(50 50) scale(0.69 0.69) rotate(0) translate(-50 -50)" style="fill:#ffffff"><svg fill="#ffffff" xmlns="http://www.w3.org/2000/svg" data-name="Layer 2" viewBox="0 0 64 64" x="0px" y="0px"><title>12, stickey notes, reminder, office, education, stationary, stationery,</title><path d="M59.27,11.25a1,1,0,0,0-.23-.73,1,1,0,0,0-.68-.36L10.54,6a1,1,0,0,0-1.08.91L5.27,54.71a1,1,0,0,0,.23.73,1,1,0,0,0,.68.35l34.87,3.05,1.13-13a1,1,0,0,1,.36-.68,1,1,0,0,1,.73-.23l12.95,1.13ZM34.49,19.12l7,.61-.18,2-7-.61Zm6.27,8.58-.17,2-15.94-1.4.17-2ZM16.55,17.55l15,1.31-.18,2L16.38,19.54ZM22,36.09l-7-.61.17-2,7,.61Zm.7-8-7-.61.18-2,7,.61Zm11.25,9-10-.88.18-2,10,.87Zm15,1.3-13-1.13.17-2,13,1.13Zm.69-8-7-.61.17-2,7,.61Zm.7-8-7-.61.17-2,7,.61Z"></path><polygon points="44.09 47.06 43.09 58.43 55.46 48.05 44.09 47.06"></polygon></svg></g></svg>