<?xml version="1.0" encoding="UTF-8" standalone="no"?>
<svg xmlns="http://www.w3.org/2000/svg" version="1.1" viewBox="0 0 100 100" height="100" width="100"><g transform="matrix(1.1428571,0,0,1.1428571,-7.142855,-7.142855)"><path fill="#7957d5" d="M 92,50 A 42,42 0 0 0 50,8 42,42 0 0 0 8,50 42,42 0 0 0 50,92 42,42 0 0 0 92,50 Z"/><path fill="#ffffff" d="m 29.660425,25.467913 a 0.94336608,0.94336608 0 0 0 -0.923926,0.862509 l -3.952054,45.093475 a 0.94336608,0.94336608 0 0 0 0.216294,0.688939 0.94336608,0.94336608 0 0 0 0.640874,0.328449 l 32.895513,2.87859 1.065453,-12.26472 a 0.94336608,0.94336608 0 0 1 0.341799,-0.640874 0.94336608,0.94336608 0 0 1 0.686269,-0.216295 l 12.216655,1.065453 2.87859,-32.839436 a 0.94336608,0.94336608 0 0 0 -0.216295,-0.686268 0.94336608,0.94336608 0 0 0 -0.643543,-0.3418 L 29.756557,25.473253 a 0.94336608,0.94336608 0 0 0 -0.09613,-0.0053 z m 5.765193,10.900193 14.149957,1.236353 -0.1709,1.885236 -14.139276,-1.244363 z m 16.924406,1.482021 6.603669,0.574116 -0.170899,1.887907 -6.603669,-0.576786 z m 8.507598,0.622182 6.603669,0.574115 -0.160218,1.887908 -6.603669,-0.576786 z m -26.064867,5.377997 6.603669,0.574116 -0.1709,1.887907 -6.603669,-0.576785 z m 8.43283,0.771719 15.039169,1.321802 -0.160219,1.885238 -15.039169,-1.319132 z m 16.972471,1.396572 6.603671,0.576786 -0.160219,1.885236 -6.60367,-0.574116 z m -26.075548,5.377997 6.60367,0.574116 -0.160218,1.887908 -6.603671,-0.576786 z m 8.454193,0.68894 9.431524,0.819784 -0.16823,1.895918 -9.434194,-0.830465 z m 11.30875,0.990683 12.26472,1.065453 -0.160218,1.885237 -12.26472,-1.065453 z m 7.519585,11.129841 -0.942618,10.726623 11.669241,-9.792016 z"/></g></svg>
